<svg width="124" height="38" viewBox="0 0 124 38" fill="none" xmlns="http://www.w3.org/2000/svg">
<path d="M28.2547 13.9682C27.3905 15.4791 27.2357 16.9923 27.2653 18.5583C27.2926 20.0716 27.3211 21.4986 26.5707 22.8096C25.9172 23.9517 24.9243 24.656 23.8346 25.3305C23.6559 25.4408 23.476 25.5511 23.2927 25.6614C21.9969 26.4392 20.6556 27.2493 19.8267 28.697C18.1632 31.6039 19.1071 33.9524 19.147 34.0501C19.2677 34.3408 19.5694 34.5108 19.8768 34.4614C25.0245 33.6273 29.4662 30.5445 32.0611 26.0095C34.6594 21.4687 35.0853 16.0444 33.2271 11.129C33.2145 11.0957 33.1986 11.0635 33.1815 11.0325C33.0574 10.8165 32.8229 10.6798 32.5667 10.6913C32.4562 10.6947 29.9854 10.9429 28.2547 13.9693V13.9682ZM32.5951 11.2646C32.6361 11.2634 32.6669 11.2864 32.684 11.3106C33.0085 12.926 32.7591 14.6208 31.9427 16.35C31.263 17.7874 30.1949 19.2512 28.7648 20.7023C28.3743 21.0987 27.9769 21.4733 27.5864 21.8215C27.8744 20.7518 27.8551 19.6441 27.8357 18.5629V18.5469C27.8095 17.1922 27.9018 15.7353 28.7489 14.2554C30.3225 11.5047 32.5132 11.2715 32.5963 11.2646H32.5951Z" fill="#6B47F5"/>
<path d="M8.75945 9.34698C10.489 9.34698 11.8644 8.72653 13.1932 7.9165C14.4787 7.13519 15.6891 6.39754 17.1886 6.39754C18.4957 6.39754 19.5968 6.91343 20.7195 7.52814C20.9039 7.62925 21.0884 7.73151 21.274 7.83607C22.5891 8.57946 23.9554 9.34698 25.6121 9.34698C28.9391 9.34698 30.4819 7.34775 30.5457 7.26502C30.7347 7.01339 30.7302 6.66525 30.5332 6.42167C27.2437 2.34048 22.3773 0 17.1875 0C11.992 0 7.12326 2.34048 3.8338 6.42167C3.81103 6.44924 3.79167 6.47912 3.77345 6.51014C3.64934 6.72615 3.64935 6.99961 3.78826 7.21791C3.84633 7.31213 5.29464 9.34813 8.75717 9.34698H8.75945ZM4.26875 6.90539C4.24712 6.87092 4.25167 6.83071 4.2642 6.80428C5.48821 5.71275 7.06747 5.0831 8.95984 4.93259C10.5334 4.80735 12.3244 5.00957 14.284 5.5335C14.8192 5.67713 15.3395 5.83684 15.8337 6.00344C14.7713 6.28609 13.8308 6.85713 12.9131 7.41554L12.8995 7.42358C11.7506 8.12331 10.4537 8.77134 8.75945 8.77134C5.61118 8.77134 4.31657 6.97318 4.26875 6.90424V6.90539Z" fill="#6B47F5"/>
<path d="M14.5413 28.6947C13.6771 27.1838 12.4565 26.2922 11.097 25.535C9.78419 24.8019 8.54538 24.1137 7.79503 22.8027C7.14147 21.6606 7.0333 20.4404 7.00028 19.1512C6.99459 18.9398 6.99117 18.7272 6.98776 18.5124C6.9684 16.9911 6.94335 15.4136 6.11444 13.9659C4.45092 11.0589 1.96305 10.7096 1.86058 10.6959C1.55087 10.6556 1.25369 10.8349 1.14211 11.1279C-0.716108 16.0432 -0.291407 21.4664 2.30349 26.0015C4.90181 30.5422 9.34469 33.6273 14.4912 34.4603C14.5265 34.466 14.5618 34.4683 14.5971 34.4683C14.8442 34.4683 15.0799 34.3316 15.1972 34.1007C15.2495 34.003 16.272 31.7188 14.5402 28.6935L14.5413 28.6947ZM14.6905 33.8398C14.6711 33.8766 14.6358 33.8915 14.6062 33.8938C13.0577 33.3699 11.7278 32.3048 10.6518 30.7261C9.758 29.4139 9.03612 27.7479 8.50553 25.7728C8.36092 25.2328 8.23795 24.6997 8.13434 24.1826C8.9086 24.9697 9.86845 25.5063 10.8067 26.029L10.8203 26.0371C11.9954 26.6909 13.2 27.5009 14.0472 28.9808C15.6207 31.7314 14.7246 33.7628 14.6905 33.8387V33.8398Z" fill="#6B47F5"/>
<path fill-rule="evenodd" clip-rule="evenodd" d="M73.6149 5.06963C76.6459 5.06963 77.9987 7.13415 77.9987 10.1151V12.9858C77.9987 14.2804 77.8033 15.3628 77.3581 16.1884C76.8437 17.1798 75.5705 18.2131 73.4128 18.2131C71.2552 18.2131 69.7209 17.291 69.7209 17.291L70.3444 15.5263C70.7271 15.7205 71.0543 15.8623 71.3473 15.9667C72.1206 16.2427 72.6578 16.2563 73.355 16.2563C75.0652 16.2562 75.8078 15.0173 75.8078 13.8204V13.5206H73.7649C71.4687 13.5206 68.9318 12.5963 68.9317 9.43605C68.9317 6.27566 71.237 5.06965 73.6149 5.06963ZM73.4311 6.90681C72.099 6.90681 71.1622 7.84848 71.1622 9.36225L71.1608 9.36092C71.1608 11.6344 73.2267 11.6661 73.7286 11.6661H75.8091V10.2797C75.8091 8.03119 74.9676 6.90684 73.4311 6.90681Z" fill="#34295E"/>
<path d="M57.8438 14.6847C58.5172 14.6847 59.0634 15.2309 59.0634 15.9042C59.0634 16.5777 58.5172 17.1238 57.8438 17.1238C57.1704 17.1238 56.6242 16.5776 56.6242 15.9042C56.6243 15.2309 57.1705 14.6847 57.8438 14.6847Z" fill="#34295E"/>
<path d="M61.1323 14.6847C61.8057 14.6847 62.3518 15.2309 62.3519 15.9042C62.3519 16.5777 61.8057 17.1238 61.1323 17.1238C60.4589 17.1238 59.9127 16.5776 59.9127 15.9042C59.9127 15.2309 60.4589 14.6847 61.1323 14.6847Z" fill="#34295E"/>
<path fill-rule="evenodd" clip-rule="evenodd" d="M120.348 13.5219H102.098C100.464 13.5219 98.9599 13.2004 97.6097 12.5656L97.6087 12.5679C96.4038 13.1539 95.0455 13.5241 93.5727 13.5252H79.0866V0.0251082H81.2771V11.6685H93.5727C94.3266 11.6684 95.0249 11.5514 95.6688 11.355C94.3425 10.2967 93.4034 9.12586 92.3508 7.7757C92.6586 7.40766 94.4504 4.84016 98.0036 5.07627C101.292 5.29318 102.484 7.51233 102.701 7.85415C101.657 9.45875 100.232 10.8544 99.6061 11.3347C100.339 11.5425 101.163 11.6675 102.098 11.6675H109.686V5.18298H111.876V11.6675H118.157V0.0227814H120.348V13.5219ZM97.8809 6.92609C97.1814 6.87955 95.9438 6.96039 94.865 7.86645L94.866 7.86778C95.477 8.63655 96.3344 9.66862 97.6243 10.4635C98.283 10.1535 99.8822 8.56488 100.352 7.90168C99.7698 7.35886 98.861 6.99082 97.8809 6.92609Z" fill="#34295E"/>
<path fill-rule="evenodd" clip-rule="evenodd" d="M60.6978 10.6942C61.0647 11.7082 62.2241 11.6685 63.1064 11.6685L65.5968 11.6641V5.18065H67.7873V13.5196H61.8935C60.8056 13.5196 60.038 13.0949 59.5883 12.2455C59.3135 12.7213 58.9261 13.0517 58.4265 13.239C57.5204 13.5797 56.5267 13.5206 55.5762 13.5206C55.3093 13.5206 54.9321 13.5229 54.6584 13.5206C53.96 13.5149 53.2572 13.4854 52.6258 13.1742C52.1579 12.9437 51.7922 12.6157 51.5299 12.191C50.7179 13.079 49.5993 13.5219 48.1753 13.5219C47.3259 13.5219 46.5037 13.3526 45.8541 13.0153C45.2046 12.6781 44.7026 12.2091 44.346 11.6096C43.9906 11.01 43.8122 10.3103 43.8122 9.51084C43.8122 8.16172 44.3278 7.10209 45.3578 6.33441C46.389 5.56566 47.7971 5.18199 49.5833 5.18198H52.6155V9.56635C52.6155 10.3408 52.7621 10.8838 53.0562 11.1961C53.3867 11.5469 53.9182 11.6426 54.3792 11.6641C54.9742 11.6925 55.7043 11.682 56.3038 11.6718C57.0998 11.6581 58.215 11.5107 58.507 10.6636V5.18065H60.6978V10.6942ZM49.6196 7.03744C48.4443 7.03746 47.5518 7.24995 46.9397 7.67465L46.9407 7.67565C46.3287 8.10148 46.022 8.71924 46.022 9.53111C46.022 10.1807 46.2164 10.6998 46.6037 11.0871C46.9898 11.4743 47.4961 11.6674 48.1955 11.6675C48.8951 11.6675 49.4416 11.4482 49.8356 11.011C50.2296 10.5738 50.426 9.96718 50.426 9.19273V7.03744H49.6196Z" fill="#34295E"/>
<path d="M123.996 13.5219H121.805V0.0227814H123.996V13.5219Z" fill="#34295E"/>
<path d="M109.03 1.65819C109.704 1.65819 110.25 2.20435 110.25 2.87777C110.25 3.55115 109.704 4.09735 109.03 4.09735C108.357 4.09731 107.811 3.55113 107.811 2.87777C107.811 2.20438 108.357 1.65823 109.03 1.65819Z" fill="#34295E"/>
<path d="M112.31 1.65819C112.984 1.65819 113.53 2.20435 113.53 2.87777C113.53 3.55115 112.984 4.09735 112.31 4.09735C111.637 4.09731 111.091 3.55113 111.091 2.87777C111.091 2.20438 111.637 1.65823 112.31 1.65819Z" fill="#34295E"/>
<path d="M47.5673 1.62063C48.2407 1.62063 48.7869 2.16679 48.7869 2.84021C48.7869 3.51363 48.2407 4.05979 47.5673 4.05979C46.8939 4.05975 46.3477 3.5136 46.3477 2.84021C46.3477 2.16682 46.8939 1.62067 47.5673 1.62063Z" fill="#34295E"/>
<path d="M50.8754 1.62063C51.5488 1.62063 52.0949 2.16679 52.0949 2.84021C52.0949 3.51363 51.5488 4.05979 50.8754 4.05979C50.202 4.05975 49.6558 3.5136 49.6558 2.84021C49.6558 2.16682 50.202 1.62067 50.8754 1.62063Z" fill="#34295E"/>
<path d="M66.6651 1.62063C67.3385 1.62063 67.8847 2.16679 67.8847 2.84021C67.8847 3.51363 67.3385 4.05979 66.6651 4.05979C65.9917 4.05975 65.4455 3.5136 65.4455 2.84021C65.4455 2.16682 65.9917 1.62068 66.6651 1.62063Z" fill="#34295E"/>
<path d="M113.551 22.4628V31.635C113.551 32.921 113.346 33.996 112.904 34.8161C112.393 35.8008 111.129 36.8275 108.985 36.8275C106.851 36.8275 105.333 35.9206 105.318 35.9116L105.937 34.1587C106.317 34.3504 106.642 34.4924 106.933 34.5961C107.701 34.8703 108.234 34.8837 108.927 34.8837C110.626 34.8837 111.364 33.6531 111.364 32.4641V32.1663C109.317 32.5566 106.421 32.6198 105.348 30.2453C105.347 30.2426 104.961 29.5457 104.956 27.688C104.949 25.6273 104.956 22.4855 104.956 22.4641H107.049V27.6834C107.049 27.6834 107.053 29.1125 107.409 29.6123C108.043 30.6603 109.689 30.7066 111.363 30.2565V22.4628H113.551Z" fill="#34295E"/>
<path d="M81.8513 27.6824C81.8513 27.6873 81.8553 29.1125 82.2112 29.6113C82.8632 30.6908 84.5868 30.7089 86.3104 30.2159H86.3114V22.4628H88.3546V31.5683C88.3546 31.5683 81.8773 34.0648 80.1501 30.2443C80.1501 30.2443 79.7632 29.5482 79.7575 27.687C79.7508 25.6193 79.7575 22.4628 79.7575 22.4628H81.8513V27.6824Z" fill="#34295E"/>
<path fill-rule="evenodd" clip-rule="evenodd" d="M56.8763 22.3139C59.7776 21.8334 62.4432 22.6704 62.5866 25.9935L62.5843 31.7499C62.0056 31.8864 61.4246 32.0298 60.8369 32.1257C59.1076 32.4077 56.7275 32.6356 55.1855 31.6621C53.358 30.5081 53.2609 27.6609 55.059 26.4313C56.5683 25.3991 58.7602 25.5887 60.4522 25.9948C60.441 25.5876 60.3405 25.1297 60.1194 24.7857C59.3749 23.6249 57.1842 23.9677 56.0641 24.3095C55.7979 24.3908 55.544 24.5069 55.2789 24.5892L54.707 22.9525C55.4019 22.6659 56.1341 22.4368 56.8786 22.3139H56.8763ZM57.9131 27.3832C56.7749 27.4171 55.6309 28.0219 55.967 29.3597C56.2907 30.6468 57.9073 30.631 58.9631 30.5679C59.4696 30.5374 59.975 30.464 60.4747 30.3896V30.3886L60.4849 27.6721C60.4514 27.6236 58.6158 27.363 57.9131 27.3832Z" fill="#34295E"/>
<path fill-rule="evenodd" clip-rule="evenodd" d="M118.269 22.3139C121.17 21.8334 123.836 22.6704 123.979 25.9935L123.977 31.7499C123.398 31.8864 122.817 32.0298 122.23 32.1257C120.5 32.4077 118.12 32.6356 116.578 31.6621C114.751 30.5081 114.654 27.6609 116.452 26.4313C117.961 25.3991 120.153 25.5887 121.845 25.9948C121.834 25.5876 121.733 25.1297 121.512 24.7857C120.768 23.6249 118.577 23.9677 117.457 24.3095C117.191 24.3908 116.937 24.5069 116.672 24.5892L116.1 22.9525C116.795 22.6659 117.527 22.4368 118.271 22.3139H118.269ZM119.307 27.3832C118.169 27.4171 117.025 28.0219 117.361 29.3597C117.685 30.6468 119.301 30.631 120.357 30.5679C120.864 30.5374 121.369 30.464 121.869 30.3896V30.3886L121.879 27.6721C121.846 27.6236 120.01 27.3629 119.307 27.3832Z" fill="#34295E"/>
<path d="M48.2611 22.4618H52.0064V24.4776H48.2611V28.8542C48.2611 29.7984 49.0148 30.4381 49.88 30.4381C50.9701 30.4381 51.9738 29.6842 52.0054 29.6602L52.6199 31.4072C52.3614 31.6047 51.2515 32.367 49.4898 32.3671C47.324 32.3671 46.0727 31.1275 46.0727 29.2719V24.4776H43.8122V22.4618H46.0727V19.7421H48.2611V22.4618Z" fill="#34295E"/>
<path d="M67.5179 29.2075L69.9533 22.4628H71.8318L74.2659 29.2075L76.6551 22.4628H78.6993L75.2961 32.1009L73.0241 32.0999L70.8921 25.5583L68.7601 32.0999L66.488 32.1009L63.0848 22.4628H65.129L67.5179 29.2075Z" fill="#34295E"/>
<path d="M90.3218 22.9954C90.3218 22.9954 96.7993 20.4991 98.5263 24.3198H98.525C98.5298 24.3285 98.912 25.0275 98.9176 26.8771C98.9243 28.9448 98.9176 32.1009 98.9176 32.1009H96.8239V26.8814C96.8238 26.8684 96.8188 25.4498 96.464 24.9524C95.8119 23.873 94.0883 23.8549 92.3647 24.3478V32.1009H90.3218V22.9954Z" fill="#34295E"/>
<path d="M102.975 32.0999H100.787V22.4628H102.975V32.0999Z" fill="#34295E"/>
<path d="M52.0064 29.6599L52.0054 29.6602L52.0051 29.6585L52.0064 29.6599Z" fill="#34295E"/>
<path d="M101.902 18.2496C102.574 18.2496 103.12 18.7957 103.12 19.468C103.12 20.1403 102.574 20.6861 101.902 20.6861C101.23 20.686 100.684 20.1402 100.684 19.468C100.684 18.7958 101.229 18.2497 101.902 18.2496Z" fill="#34295E"/>
</svg>
