<svg xmlns:xlink="http://www.w3.org/1999/xlink" xmlns="http://www.w3.org/2000/svg" viewBox="0 0 759.86 218.95" width="759.86"  height="218.95" ><defs><style>.cls-1{fill:#1c222a;fill-rule:evenodd;}</style></defs><title>anspire_dark</title><g id="Layer_2" data-name="Layer 2"><g id="Background_copy_2_Image" data-name="Background copy 2 Image"><g id="_" data-name="®"><path class="cls-1" d="M95.55,67.11A43.62,43.62,0,0,0,80.26,57,53.69,53.69,0,0,0,60,53.3a87.5,87.5,0,0,0-29.34,4.84A75.38,75.38,0,0,0,5.74,72.9l6.69,11.6A16.55,16.55,0,0,0,16.73,89,10.65,10.65,0,0,0,23.19,91a17.71,17.71,0,0,0,7.41-1.43c2.07-1,4.2-2,6.39-3.23a49.14,49.14,0,0,1,7.47-3.23,34,34,0,0,1,10.76-1.43c5.49,0,9.74,1.61,12.72,4.84s4.49,8.47,4.49,15.72v5.26q-21.29.47-35.26,4.3t-22.23,9.5q-8.25,5.67-11.59,12.61A30.82,30.82,0,0,0,0,147.36a38.61,38.61,0,0,0,2.63,14.76,28.54,28.54,0,0,0,7.47,10.7,32.1,32.1,0,0,0,11.77,6.51,50.38,50.38,0,0,0,15.42,2.22,60,60,0,0,0,11.53-1,43.8,43.8,0,0,0,9.8-3.11,56.64,56.64,0,0,0,8.91-5.08q4.31-3,9-6.93l2.63,6.81c1.19,3,2.69,5,4.48,6s4.44,1.43,8,1.43h17V102.19a55.62,55.62,0,0,0-3.35-19.6A44.22,44.22,0,0,0,95.55,67.11Zm-23.12,79.3a38.24,38.24,0,0,1-10.88,8.12A29.28,29.28,0,0,1,49,157q-6.69,0-10.16-2.57t-3.46-8.9a11.59,11.59,0,0,1,1.61-6,13.83,13.83,0,0,1,5.8-4.9,44.62,44.62,0,0,1,11.35-3.58,122.75,122.75,0,0,1,18.29-1.91ZM221.7,67.11a37.4,37.4,0,0,0-13.21-9.8,43.38,43.38,0,0,0-18-3.53,50.5,50.5,0,0,0-11.06,1.14A48.38,48.38,0,0,0,170,58a42.72,42.72,0,0,0-8.19,4.84,89.59,89.59,0,0,0-7.41,6.21l-2.15-7.17q-2.14-6.21-9.08-6.22h-23V179.63h37.05V91.31a44.44,44.44,0,0,1,10.28-7A25.8,25.8,0,0,1,179,81.63q8.13,0,12.31,5.08t4.19,14.16v78.76h37.05V100.87a62,62,0,0,0-2.75-18.82A42.46,42.46,0,0,0,221.7,67.11Zm101.71,50.2A39.55,39.55,0,0,0,314.2,111a93.16,93.16,0,0,0-10.51-4.48q-5.38-1.9-10.52-3.47a88.63,88.63,0,0,1-9.2-3.28,22.44,22.44,0,0,1-6.52-4A7.48,7.48,0,0,1,275,90a8.66,8.66,0,0,1,3.77-7.47q3.76-2.7,10.81-2.69A31,31,0,0,1,298.31,81a63.64,63.64,0,0,1,6.87,2.45l5.68,2.45A13.1,13.1,0,0,0,316.12,87a8,8,0,0,0,4.12-1,9.66,9.66,0,0,0,3.05-3.23l8.36-13a48.91,48.91,0,0,0-8-6.4,57.18,57.18,0,0,0-10-5.08A66.08,66.08,0,0,0,301.83,55a68.81,68.81,0,0,0-13-1.2A66.23,66.23,0,0,0,267.35,57a45.07,45.07,0,0,0-15.3,8.54A34.88,34.88,0,0,0,242.91,78a37.74,37.74,0,0,0-3,15,37.42,37.42,0,0,0,2.51,14.47A31.67,31.67,0,0,0,249,117.54a36.49,36.49,0,0,0,9.26,6.82,86.15,86.15,0,0,0,10.58,4.6q5.37,1.9,10.57,3.4a81.86,81.86,0,0,1,9.27,3.23,22.08,22.08,0,0,1,6.57,4.12,8.08,8.08,0,0,1,2.51,6.1,9.64,9.64,0,0,1-3.47,7.41,12.79,12.79,0,0,1-4.78,2.45,25.53,25.53,0,0,1-7.29.9,30.23,30.23,0,0,1-10.1-1.44,45.14,45.14,0,0,1-7-3.11l-5.56-3.1a11.62,11.62,0,0,0-5.79-1.44,10.57,10.57,0,0,0-5.68,1.38,10.94,10.94,0,0,0-3.64,3.76l-8.61,13.63a47.27,47.27,0,0,0,8.61,6,65.57,65.57,0,0,0,10.93,4.84,87.76,87.76,0,0,0,12.25,3.23,67.94,67.94,0,0,0,12.67,1.2,73.81,73.81,0,0,0,22.41-3.11A47.09,47.09,0,0,0,319,169.71a35.88,35.88,0,0,0,10-13.38,42.48,42.48,0,0,0,3.35-17,31,31,0,0,0-2.45-12.91A28.18,28.18,0,0,0,323.41,117.31ZM444.59,70a41.25,41.25,0,0,0-14.22-12.43,38.16,38.16,0,0,0-17.93-4.31,50.41,50.41,0,0,0-11.89,1.32,49.33,49.33,0,0,0-10.16,3.64,51.55,51.55,0,0,0-8.84,5.56A62,62,0,0,0,373.84,71l-2.75-9.08q-2.14-6.21-9.08-6.22H339.06V219h37.05V171.39a44.59,44.59,0,0,0,11.95,7.41q6.57,2.74,16.26,2.75a47.25,47.25,0,0,0,21.57-4.91A50,50,0,0,0,442.62,163a64.94,64.94,0,0,0,10.88-20.56,82.27,82.27,0,0,0,3.88-25.81A96.14,96.14,0,0,0,454,89.94,62.59,62.59,0,0,0,444.59,70ZM417.34,134.1a34.62,34.62,0,0,1-5,11.65,19.15,19.15,0,0,1-7.47,6.51,21.71,21.71,0,0,1-9.44,2,28.76,28.76,0,0,1-10.28-1.86,23.38,23.38,0,0,1-9.08-6.51V93.34a55,55,0,0,1,4.78-5.08,23.23,23.23,0,0,1,5.2-3.64,26.76,26.76,0,0,1,6.1-2.21,31.88,31.88,0,0,1,7.35-.78,17.71,17.71,0,0,1,8,1.79,15.57,15.57,0,0,1,6.16,5.92,33.9,33.9,0,0,1,4,10.81,80.11,80.11,0,0,1,1.44,16.5A72.72,72.72,0,0,1,417.34,134.1ZM499.57,6.33a22.63,22.63,0,0,0-7.23-4.66A23.25,23.25,0,0,0,483.56,0a21.61,21.61,0,0,0-8.49,1.67,22.46,22.46,0,0,0-7,4.66,22.08,22.08,0,0,0-4.78,6.94,20.75,20.75,0,0,0-1.74,8.48,20.1,20.1,0,0,0,1.74,8.31,21.41,21.41,0,0,0,4.78,6.81,23.75,23.75,0,0,0,7,4.66,20.79,20.79,0,0,0,8.49,1.73,22.36,22.36,0,0,0,8.78-1.73,23.89,23.89,0,0,0,7.23-4.66,21.77,21.77,0,0,0,4.9-6.81,19.52,19.52,0,0,0,1.79-8.31,20.16,20.16,0,0,0-1.79-8.48A22.43,22.43,0,0,0,499.57,6.33Zm-34.18,173.3h37.05V55.69H465.39ZM590.7,88.08a5.68,5.68,0,0,0,2-3.58l2.39-27.25q-5.25-3.95-13.62-4a27.24,27.24,0,0,0-17.15,5.8A54.44,54.44,0,0,0,551,74.94l-1.79-10.52A24.07,24.07,0,0,0,548,60.36a6.21,6.21,0,0,0-1.91-2.69,8,8,0,0,0-3.11-1.5,19.09,19.09,0,0,0-4.6-.48h-22V179.63h37.05V104.46a34.44,34.44,0,0,1,8.19-12q4.85-4.36,13-4.37a30.74,30.74,0,0,1,3.16.18l3.41.36c1.12.12,2.19.22,3.23.3s1.87.12,2.51.12A6.48,6.48,0,0,0,590.7,88.08Zm97.53-19.36a49,49,0,0,0-17.57-11.11,68.57,68.57,0,0,0-48,1.07,57.22,57.22,0,0,0-31.43,32.75A65.42,65.42,0,0,0,586.94,115q0,16.5,5,28.93a59.22,59.22,0,0,0,13.5,20.79,56.17,56.17,0,0,0,20,12.61,69.57,69.57,0,0,0,24.44,4.25,104.6,104.6,0,0,0,13.33-.9,73.53,73.53,0,0,0,14-3.23A64.27,64.27,0,0,0,690.74,171a55.34,55.34,0,0,0,12.37-10.7L692.35,147a7.66,7.66,0,0,0-6.69-3.22,14,14,0,0,0-6.4,1.55c-2,1-4.26,2.19-6.69,3.47a55.91,55.91,0,0,1-8.31,3.46,35.11,35.11,0,0,1-11.11,1.56q-12.07,0-19.72-7T624,124.3h71.47a12,12,0,0,0,4.12-.6,5,5,0,0,0,2.57-2.15,10.61,10.61,0,0,0,1.31-4.19,52,52,0,0,0,.36-6.81,65.54,65.54,0,0,0-4.12-24A50.76,50.76,0,0,0,688.23,68.72Zm-63.89,34.06q1.92-11.34,7.89-17.39t16.62-6a23.13,23.13,0,0,1,10.15,2,19,19,0,0,1,6.76,5.32,20.93,20.93,0,0,1,3.7,7.47,32.59,32.59,0,0,1,1.14,8.6ZM759.17,41.56a19.26,19.26,0,0,0-2-4.64,19.93,19.93,0,0,0-3-3.92,19.39,19.39,0,0,0-8.57-5,19.6,19.6,0,0,0-10.31,0,19.35,19.35,0,0,0-4.62,2,20,20,0,0,0-3.93,3,19.65,19.65,0,0,0-3,3.92,19.34,19.34,0,0,0,3,23.52,19.91,19.91,0,0,0,3.93,3,19.27,19.27,0,0,0,19.57,0,19.35,19.35,0,0,0,7-7,19.48,19.48,0,0,0,2-14.95Zm-3.34,11.79a16.78,16.78,0,0,1-3.55,5.35A16.46,16.46,0,0,1,747,62.29a16.74,16.74,0,0,1-13,0,16.44,16.44,0,0,1-5.26-3.59,16.9,16.9,0,0,1-3.53-5.35,17.81,17.81,0,0,1,0-13.26,17,17,0,0,1,3.53-5.39A16.52,16.52,0,0,1,734,31.08a16.62,16.62,0,0,1,13,0,16.54,16.54,0,0,1,5.29,3.62,17.4,17.4,0,0,1,3.55,18.65ZM744.5,48.83a3.9,3.9,0,0,0-.81-.71,7.22,7.22,0,0,0,4.16-2.45,6.59,6.59,0,0,0,1.38-4.2A5.83,5.83,0,0,0,747,36.53q-2.22-1.7-6.85-1.69H732.4V58.52h4.4V49.26h2a2.19,2.19,0,0,1,1,.19,1.6,1.6,0,0,1,.57.56l5.09,7.79a1.45,1.45,0,0,0,1.35.72H751l-5.83-8.73A6.23,6.23,0,0,0,744.5,48.83Zm-4.76-2.77H736.8V38.24h3.37a9.64,9.64,0,0,1,2.26.22,3.49,3.49,0,0,1,1.46.7,2.73,2.73,0,0,1,.78,1.2,5.21,5.21,0,0,1,.24,1.67,5.27,5.27,0,0,1-.26,1.72,3,3,0,0,1-.88,1.26,4.22,4.22,0,0,1-1.59.78A9.35,9.35,0,0,1,739.74,46.06Z"/></g></g></g></svg>