<svg width="118" height="22" viewBox="0 0 118 22" fill="none" xmlns="http://www.w3.org/2000/svg">
<g clip-path="url(#clip0_11_2)">
<path fill-rule="evenodd" clip-rule="evenodd" d="M32.4577 2.87048V5.77352H28.3015V18.2625H25.2679V5.77352H21.1335V2.87048H32.4577Z" fill="black"/>
<path fill-rule="evenodd" clip-rule="evenodd" d="M35.3161 9.15918C35.5798 8.45518 36.0163 7.92782 36.6243 7.57582C37.2323 7.22382 37.9107 7.04846 38.6582 7.04846V10.2152C37.7929 10.1128 37.0198 10.2881 36.3388 10.7425C35.6566 11.1969 35.3161 11.9521 35.3161 13.0069V18.2625H32.4796V7.26862H35.3161V9.15918Z" fill="black"/>
<path fill-rule="evenodd" clip-rule="evenodd" d="M42.1325 13.9306C42.5139 15.3092 43.5469 15.9978 45.2327 15.9978C46.3181 15.9978 47.1386 15.6317 47.6954 14.8983L49.9827 16.218C48.8973 17.786 47.2999 18.5706 45.1891 18.5706C43.3715 18.5706 41.9123 18.0202 40.8128 16.9207C39.7133 15.8212 39.1642 14.4362 39.1642 12.7658C39.1642 11.1095 39.7069 9.72708 40.7911 8.61988C41.8752 7.51396 43.2679 6.95972 44.969 6.95972C46.5818 6.95972 47.9117 7.5178 48.96 8.6314C50.0083 9.745 50.5319 11.1236 50.5319 12.7658C50.5319 13.1319 50.4947 13.5197 50.4218 13.9306H42.1325ZM42.089 11.7316H47.6954C47.5341 10.984 47.2013 10.4272 46.6957 10.0612C46.1888 9.6938 45.6141 9.51076 44.969 9.51076C44.2061 9.51076 43.5763 9.70532 43.0784 10.0932C42.5792 10.4823 42.2503 11.0276 42.089 11.7316Z" fill="black"/>
<path fill-rule="evenodd" clip-rule="evenodd" d="M64.5163 6.96033C65.7771 6.96033 66.7845 7.37121 67.5397 8.19169C68.2949 9.01217 68.6725 10.1117 68.6725 11.4902V18.2627H65.836V11.6874C65.836 11.0282 65.6747 10.5149 65.3522 10.1488C65.0296 9.78273 64.5752 9.59841 63.989 9.59841C63.3438 9.59841 62.8421 9.81089 62.4824 10.2371C62.1227 10.6621 61.9435 11.2778 61.9435 12.0842V18.2627H59.107V11.6874C59.107 11.0282 58.9458 10.5149 58.6232 10.1488C58.3006 9.78273 57.8462 9.59841 57.26 9.59841C56.6302 9.59841 56.1285 9.81089 55.7534 10.2371C55.3797 10.6621 55.1928 11.2778 55.1928 12.0842V18.2627H52.3563V7.26753H55.1928V8.43361C55.8533 7.45185 56.8722 6.96033 58.2494 6.96033C59.5986 6.96033 60.5944 7.48769 61.2395 8.54369C61.973 7.48769 63.0648 6.96033 64.5163 6.96033Z" fill="black"/>
<path fill-rule="evenodd" clip-rule="evenodd" d="M80.3037 16.888C79.1747 18.0093 77.7975 18.5699 76.1706 18.5699C74.5424 18.5699 73.169 18.0093 72.0477 16.888C70.9251 15.7667 70.3645 14.392 70.3645 12.7651C70.3645 11.1382 70.9251 9.76353 72.0477 8.64225C73.169 7.52097 74.5424 6.96033 76.1706 6.96033C77.7975 6.96033 79.1747 7.52097 80.3037 8.64225C81.4327 9.76353 81.9971 11.1382 81.9971 12.7651C81.9971 14.392 81.4327 15.7667 80.3037 16.888ZM74.0483 14.9424C74.6115 15.5133 75.3194 15.8 76.1706 15.8C77.0205 15.8 77.7309 15.5133 78.3031 14.9424C78.8739 14.3702 79.1607 13.6445 79.1607 12.7651C79.1607 11.8858 78.8739 11.16 78.3031 10.5878C77.7309 10.017 77.0205 9.73025 76.1706 9.73025C75.3194 9.73025 74.6115 10.017 74.0483 10.5878C73.4839 11.16 73.201 11.8858 73.201 12.7651C73.201 13.6445 73.4839 14.3702 74.0483 14.9424Z" fill="black"/>
<mask id="mask0_11_2" style="mask-type:alpha" maskUnits="userSpaceOnUse" x="0" y="0" width="118" height="22">
<path fill-rule="evenodd" clip-rule="evenodd" d="M117.251 0V21.6896H0V0H117.251Z" fill="white"/>
</mask>
<g mask="url(#mask0_11_2)">
<path fill-rule="evenodd" clip-rule="evenodd" d="M83.8439 18.2618H86.6804V2.21057H83.8439V18.2618Z" fill="black"/>
<path fill-rule="evenodd" clip-rule="evenodd" d="M98.4878 16.888C97.3588 18.0093 95.9815 18.5699 94.3534 18.5699C92.7265 18.5699 91.3531 18.0093 90.2318 16.888C89.1092 15.7667 88.5486 14.392 88.5486 12.7651C88.5486 11.1382 89.1092 9.76353 90.2318 8.64225C91.3531 7.52097 92.7265 6.96033 94.3534 6.96033C95.9815 6.96033 97.3588 7.52097 98.4878 8.64225C99.6167 9.76353 100.181 11.1382 100.181 12.7651C100.181 14.392 99.6167 15.7667 98.4878 16.888ZM92.2324 14.9424C92.7956 15.5133 93.5035 15.8 94.3534 15.8C95.2046 15.8 95.915 15.5133 96.4871 14.9424C97.058 14.3702 97.3447 13.6445 97.3447 12.7651C97.3447 11.8858 97.058 11.16 96.4871 10.5878C95.915 10.017 95.2046 9.73025 94.3534 9.73025C93.5035 9.73025 92.7956 10.017 92.2324 10.5878C91.6679 11.16 91.3851 11.8858 91.3851 12.7651C91.3851 13.6445 91.6679 14.3702 92.2324 14.9424Z" fill="black"/>
<path fill-rule="evenodd" clip-rule="evenodd" d="M111.395 16.888C110.266 18.0093 108.888 18.5699 107.26 18.5699C105.633 18.5699 104.26 18.0093 103.139 16.888C102.016 15.7667 101.455 14.392 101.455 12.7651C101.455 11.1382 102.016 9.76353 103.139 8.64225C104.26 7.52097 105.633 6.96033 107.26 6.96033C108.888 6.96033 110.266 7.52097 111.395 8.64225C112.524 9.76353 113.088 11.1382 113.088 12.7651C113.088 14.392 112.524 15.7667 111.395 16.888ZM105.139 14.9424C105.704 15.5133 106.41 15.8 107.26 15.8C108.111 15.8 108.822 15.5133 109.394 14.9424C109.965 14.3702 110.252 13.6445 110.252 12.7651C110.252 11.8858 109.965 11.16 109.394 10.5878C108.822 10.017 108.111 9.73025 107.26 9.73025C106.41 9.73025 105.704 10.017 105.139 10.5878C104.575 11.16 104.292 11.8858 104.292 12.7651C104.292 13.6445 104.575 14.3702 105.139 14.9424Z" fill="black"/>
</g>
<path fill-rule="evenodd" clip-rule="evenodd" d="M113.733 3.559C114.133 3.15964 114.615 2.95996 115.181 2.95996C115.747 2.95996 116.229 3.15964 116.629 3.559C117.028 3.95836 117.228 4.44092 117.228 5.00668C117.228 5.57244 117.028 6.055 116.629 6.45436C116.229 6.85372 115.747 7.0534 115.181 7.0534C114.615 7.0534 114.133 6.85372 113.733 6.45436C113.334 6.055 113.134 5.57244 113.134 5.00668C113.134 4.44092 113.334 3.95836 113.733 3.559ZM115.181 6.88444C115.693 6.88444 116.132 6.7014 116.496 6.33532C116.859 5.96924 117.041 5.52636 117.041 5.00668C117.041 4.487 116.859 4.04284 116.496 3.67804C116.132 3.31196 115.693 3.12892 115.181 3.12892C114.664 3.12892 114.225 3.31196 113.86 3.67804C113.497 4.04284 113.315 4.487 113.315 5.00668C113.315 5.52636 113.497 5.96924 113.86 6.33532C114.225 6.7014 114.664 6.88444 115.181 6.88444ZM116.012 4.63932C116.012 4.93244 115.894 5.13852 115.656 5.255L116.091 6.05244H115.616L115.25 5.34588H115.216H114.943V6.05244H114.508V3.96092H115.214C115.46 3.96092 115.655 4.02492 115.797 4.15548C115.94 4.28604 116.012 4.44732 116.012 4.63932ZM114.943 4.36796V4.95036H115.214C115.328 4.95036 115.417 4.92348 115.481 4.871C115.545 4.81852 115.577 4.74812 115.577 4.66108C115.577 4.46524 115.456 4.36796 115.214 4.36796H114.943Z" fill="black"/>
<mask id="mask1_11_2" style="mask-type:alpha" maskUnits="userSpaceOnUse" x="113" y="2" width="5" height="6">
<path fill-rule="evenodd" clip-rule="evenodd" d="M113.113 2.93738H117.251V7.07562H113.113V2.93738Z" fill="white"/>
</mask>
<g mask="url(#mask1_11_2)">
<path fill-rule="evenodd" clip-rule="evenodd" d="M115.181 7.07562C114.613 7.07562 114.12 6.8721 113.718 6.47018C113.316 6.06826 113.113 5.57546 113.113 5.00714C113.113 4.43754 113.316 3.94474 113.718 3.54282C114.12 3.1409 114.613 2.93738 115.181 2.93738C115.749 2.93738 116.242 3.1409 116.644 3.54282C117.046 3.94602 117.251 4.43754 117.251 5.00714C117.251 5.57546 117.046 6.06826 116.644 6.47018C116.242 6.8721 115.749 7.07562 115.181 7.07562ZM115.181 2.98218C114.624 2.98218 114.143 3.18186 113.749 3.57482C113.356 3.96778 113.156 4.45034 113.156 5.00714C113.156 5.56394 113.356 6.04522 113.749 6.43818C114.143 6.83242 114.624 7.03082 115.181 7.03082C115.738 7.03082 116.219 6.83242 116.613 6.43818C117.006 6.04522 117.206 5.56394 117.206 5.00714C117.206 4.45034 117.006 3.96778 116.613 3.57482C116.219 3.18186 115.738 2.98218 115.181 2.98218ZM115.181 6.90538C114.661 6.90538 114.211 6.71978 113.845 6.35114C113.479 5.9825 113.293 5.53066 113.293 5.00714C113.293 4.48234 113.479 4.0305 113.845 3.66186C114.211 3.29322 114.661 3.10762 115.181 3.10762C115.697 3.10762 116.145 3.29322 116.511 3.66186C116.878 4.0305 117.064 4.48234 117.064 5.00714C117.064 5.53066 116.878 5.9825 116.511 6.35114C116.145 6.71978 115.698 6.90538 115.181 6.90538ZM115.181 3.15114C114.673 3.15114 114.234 3.33418 113.877 3.69386C113.518 4.05354 113.337 4.49514 113.337 5.00714C113.337 5.51786 113.518 5.96074 113.877 6.31914C114.234 6.6801 114.673 6.86186 115.181 6.86186C115.685 6.86186 116.122 6.6801 116.48 6.31914C116.837 5.96074 117.019 5.51786 117.019 5.00714C117.019 4.49514 116.837 4.05354 116.48 3.69386C116.122 3.33418 115.685 3.15114 115.181 3.15114ZM116.128 6.07466H115.603L115.236 5.3681H114.966V6.07466H114.486V3.93834H115.214C115.464 3.93834 115.665 4.00618 115.812 4.1393C115.959 4.27242 116.035 4.44138 116.035 4.6385C116.035 4.9329 115.917 5.14282 115.687 5.26442L116.128 6.07466ZM115.63 6.03114H116.054L115.625 5.24522L115.646 5.23498C115.877 5.12234 115.99 4.9265 115.99 4.6385C115.99 4.45418 115.92 4.29674 115.783 4.17258C115.644 4.04586 115.454 3.98314 115.214 3.98314H114.531V6.03114H114.921V5.3233H115.263L115.63 6.03114ZM115.214 4.97258H114.921V4.34538H115.214C115.47 4.34538 115.6 4.45162 115.6 4.66154C115.6 4.75498 115.564 4.8305 115.495 4.8881C115.427 4.94442 115.333 4.97258 115.214 4.97258ZM114.966 4.92778H115.214C115.322 4.92778 115.406 4.90346 115.466 4.85354C115.525 4.8049 115.555 4.74218 115.555 4.66154C115.555 4.4785 115.443 4.39018 115.214 4.39018H114.966V4.92778Z" fill="black"/>
</g>
<mask id="mask2_11_2" style="mask-type:alpha" maskUnits="userSpaceOnUse" x="0" y="0" width="17" height="22">
<path fill-rule="evenodd" clip-rule="evenodd" d="M11.337 0L0.04608 6.3936L5.3248 9.504L0 12.4685L5.16736 15.5123L0.02048 18.4128L5.58208 21.6896L16.873 15.2947L13.1699 13.1123L7.00672 16.6323L5.57184 15.7389L16.8525 9.3504L13.0803 7.12832L7.07456 10.5562L5.62944 9.65632L16.8986 3.27424L11.337 0Z" fill="white"/>
</mask>
<g mask="url(#mask2_11_2)">
<path fill-rule="evenodd" clip-rule="evenodd" d="M11.337 0L0.04608 6.3936L5.3248 9.504L0 12.4685L5.16736 15.5123L0.02048 18.4128L5.58208 21.6896L16.873 15.2947L13.1699 13.1123L7.00672 16.6323L5.57184 15.7389L16.8525 9.3504L13.0803 7.12832L7.07456 10.5562L5.62944 9.65632L16.8986 3.27424L11.337 0Z" fill="url(#paint0_linear_11_2)"/>
</g>
</g>
<defs>
<linearGradient id="paint0_linear_11_2" x1="17.1918" y1="19.2572" x2="17.1918" y2="-3.18521" gradientUnits="userSpaceOnUse">
<stop stop-color="#5C18FF"/>
<stop offset="1" stop-color="#965FFF"/>
</linearGradient>
<clipPath id="clip0_11_2">
<rect width="118" height="22" fill="white"/>
</clipPath>
</defs>
</svg>
